<svg xmlns="http://www.w3.org/2000/svg" xmlns:xlink="http://www.w3.org/1999/xlink" fill="none" version="1.1" width="30"
     height="30" viewBox="0 0 30 30">
  <defs>
    <clipPath id="master_svg0_238_29308">
      <rect x="0" y="0" width="30" height="30" rx="0"/>
    </clipPath>
  </defs>
  <g clip-path="url(#master_svg0_238_29308)">
    <path
      d="M23.487549,2C25.802118,2.0012628146,27.726206,3.7880944000000003,27.905155,6.1024752C28.084105,8.4168563,26.457689,10.4798203,24.170984,10.8389387C21.884279,11.1980581,19.706936,9.73246,19.171915,7.4739995L7.3043442,7.4739995C5.570869399999999,7.4950242,4.1576488000000005,8.8742862,4.0894852,10.6116056C4.0213215,12.348927,5.3221104,13.835295,7.0485778,13.992864L7.3043442,14.003124L22.650339,14.003124C25.533201,13.958765,27.916199,16.246578,27.997849,19.137035C28.0795,22.027494,25.829473,24.446945,22.948736,24.566353L22.648636,24.574903L10.7503729,24.574903C10.031867,27.614475,6.4950504,28.983818,3.9264506,27.216904C1.35785067,25.449991,1.3578496,21.647715,3.9264486,19.880798C6.4950476,18.113884,10.0318642,19.483223,10.7503729,22.522797L22.652044,22.522797C24.420216,22.576498,25.901022,21.190706,25.969816,19.4179C26.038616,17.645096000000002,24.66968,16.148066999999998,22.902695,16.063784L22.650337,16.055233L7.3043427,16.055233C4.4543121,16.027349,2.13600968,13.745043,2.055303834,10.887702C1.974597916,8.0303588,4.1603584,5.6200931,7.0042424,5.4304426L7.3043427,5.4218924L19.171913,5.4218924C19.633999,3.4604188000000002,21.391966,2.0017117602,23.487547,2.0017117602L23.487549,2ZM6.4364429,21.153009C5.1180527,21.153009,4.0492871,22.224897,4.0492871,23.547138C4.0492871,24.869375,5.1180527,25.941263,6.4364429,25.941263C7.7548318,25.941263,8.8235979,24.869375,8.8235979,23.547138C8.8235979,22.224897,7.7548318,21.153009,6.4364429,21.153009ZM23.487549,4.0521083C22.16884,4.0516517,21.099571,5.1236722,21.099571,6.4462347C21.099571,7.7687969,22.16884,8.8408175,23.487549,8.8403606C24.805616,8.8399048,25.87388,7.7681518,25.87388,6.4462347C25.87388,5.1243174,24.805616,4.0525646,23.487549,4.0521083Z"
      fill="currentColor" fill-opacity="1"/>
  </g>
</svg>